<?xml version="1.0" encoding="utf-8"?>
<!-- Generator: Adobe Illustrator 23.0.2, SVG Export Plug-In . SVG Version: 6.00 Build 0)  -->
<svg version="1.1" id="Layer_1" xmlns="http://www.w3.org/2000/svg" xmlns:xlink="http://www.w3.org/1999/xlink" x="0px" y="0px"
	 viewBox="0 0 520 115" style="enable-background:new 0 0 520 115;" xml:space="preserve">
<style type="text/css">
	.st0{fill:#50535A;}
	.st1{fill:#007297;}
	.st2{fill:#A1B2CA;}
</style>
<g>
	<path class="st0" d="M2.74,63.31c-0.24-0.24-0.36-0.57-0.36-0.97V21.96c0-0.4,0.12-0.73,0.36-0.97c0.24-0.24,0.57-0.36,0.97-0.36
		h1.03c0.4,0,0.73,0.12,0.97,0.36c0.24,0.24,0.36,0.57,0.36,0.97v2.85c2.34-3.19,5.74-4.79,10.19-4.79c4.37,0,7.59,1.39,9.67,4.15
		c2.08,2.77,3.18,6.17,3.3,10.22c0.04,0.4,0.06,1.07,0.06,2c0,0.93-0.02,1.6-0.06,2c-0.12,4.04-1.22,7.45-3.3,10.22
		c-2.08,2.77-5.31,4.15-9.67,4.15c-4.41,0-7.8-1.6-10.19-4.79v14.37c0,0.4-0.12,0.73-0.36,0.97c-0.24,0.24-0.57,0.36-0.97,0.36H3.71
		C3.31,63.68,2.98,63.56,2.74,63.31z M23.08,46.12c1.52-2.08,2.33-4.76,2.46-8.03c0.04-0.4,0.06-0.97,0.06-1.7
		c0-3.76-0.73-6.84-2.18-9.25c-1.46-2.4-3.96-3.61-7.52-3.61c-3.19,0-5.6,1.06-7.21,3.18c-1.62,2.12-2.49,4.62-2.61,7.49l-0.06,2.36
		l0.06,2.36c0.04,1.74,0.42,3.39,1.15,4.94c0.73,1.56,1.82,2.84,3.27,3.85c1.46,1.01,3.25,1.52,5.4,1.52
		C19.17,49.25,21.57,48.21,23.08,46.12z"/>
	<path class="st0" d="M40.91,51.43c-1.8-0.89-3.15-1.9-4.06-3.03c-0.91-1.13-1.36-2.04-1.36-2.73c0-0.36,0.14-0.66,0.42-0.88
		c0.28-0.22,0.59-0.33,0.91-0.33h0.91c0.28,0,0.52,0.05,0.7,0.15c0.18,0.1,0.39,0.31,0.64,0.64c0.89,1.25,1.97,2.23,3.24,2.94
		c1.27,0.71,3.02,1.06,5.24,1.06c2.51,0,4.53-0.47,6.06-1.42c1.54-0.95,2.3-2.31,2.3-4.09c0-1.09-0.31-1.98-0.94-2.67
		c-0.63-0.69-1.64-1.28-3.03-1.79c-1.39-0.5-3.47-1.08-6.21-1.73c-3.6-0.81-6.05-1.92-7.37-3.33c-1.31-1.41-1.97-3.21-1.97-5.4
		c0-1.5,0.41-2.91,1.24-4.24c0.83-1.33,2.06-2.43,3.7-3.27c1.64-0.85,3.61-1.27,5.91-1.27c2.43,0,4.48,0.41,6.15,1.24
		c1.68,0.83,2.93,1.79,3.76,2.88c0.83,1.09,1.24,1.98,1.24,2.67c0,0.36-0.13,0.66-0.39,0.88c-0.26,0.22-0.58,0.33-0.94,0.33h-0.91
		c-0.57,0-1.01-0.26-1.33-0.79c-0.81-1.21-1.73-2.13-2.76-2.76c-1.03-0.63-2.64-0.94-4.82-0.94c-2.34,0-4.12,0.49-5.34,1.46
		c-1.21,0.97-1.82,2.24-1.82,3.82c0,0.97,0.24,1.78,0.73,2.43c0.49,0.65,1.39,1.24,2.73,1.79c1.33,0.55,3.27,1.1,5.82,1.67
		c3.76,0.85,6.41,1.98,7.94,3.4c1.54,1.42,2.3,3.3,2.3,5.64c0,1.66-0.47,3.17-1.39,4.55c-0.93,1.37-2.3,2.47-4.12,3.27
		c-1.82,0.81-4,1.21-6.55,1.21C44.92,52.76,42.7,52.32,40.91,51.43z"/>
	<path class="st0" d="M69.58,48.91c-2.32-2.57-3.55-5.89-3.67-9.97l-0.06-2.55l0.06-2.55c0.12-4.08,1.34-7.41,3.67-9.97
		c2.32-2.57,5.59-3.85,9.79-3.85c4.2,0,7.47,1.28,9.79,3.85c2.32,2.57,3.55,5.89,3.67,9.97c0.04,0.4,0.06,1.25,0.06,2.55
		c0,1.29-0.02,2.14-0.06,2.55c-0.12,4.08-1.34,7.41-3.67,9.97c-2.32,2.57-5.59,3.85-9.79,3.85C75.17,52.76,71.91,51.48,69.58,48.91z
		 M86.32,46.49c1.76-1.84,2.7-4.46,2.82-7.85c0.04-0.4,0.06-1.15,0.06-2.24c0-1.09-0.02-1.84-0.06-2.24
		c-0.12-3.4-1.06-6.01-2.82-7.85c-1.76-1.84-4.07-2.76-6.94-2.76c-2.87,0-5.18,0.92-6.94,2.76c-1.76,1.84-2.7,4.46-2.82,7.85
		l-0.06,2.24l0.06,2.24c0.12,3.4,1.06,6.01,2.82,7.85c1.76,1.84,4.07,2.76,6.94,2.76C82.25,49.25,84.56,48.33,86.32,46.49z"/>
	<path class="st0" d="M101.57,51.79c-0.24-0.24-0.36-0.57-0.36-0.97v-28.8c0-0.4,0.12-0.74,0.36-1c0.24-0.26,0.57-0.39,0.97-0.39
		h0.97c0.4,0,0.74,0.13,1,0.39c0.26,0.26,0.39,0.6,0.39,1v2.79c1.46-2.79,4.2-4.18,8.25-4.18h2.24c0.4,0,0.73,0.12,0.97,0.36
		c0.24,0.24,0.36,0.57,0.36,0.97v0.85c0,0.4-0.12,0.73-0.36,0.97c-0.24,0.24-0.57,0.36-0.97,0.36h-2.61c-2.43,0-4.35,0.71-5.76,2.12
		c-1.42,1.42-2.12,3.34-2.12,5.76v18.8c0,0.4-0.13,0.73-0.39,0.97c-0.26,0.24-0.6,0.36-1,0.36h-0.97
		C102.13,52.16,101.81,52.04,101.57,51.79z"/>
	<path class="st0" d="M122,13.78c-0.24-0.24-0.36-0.57-0.36-0.97v-2.3c0-0.4,0.12-0.74,0.36-1c0.24-0.26,0.57-0.39,0.97-0.39h2.3
		c0.4,0,0.74,0.13,1,0.39c0.26,0.26,0.39,0.6,0.39,1v2.3c0,0.4-0.13,0.73-0.39,0.97c-0.26,0.24-0.6,0.36-1,0.36h-2.3
		C122.57,14.14,122.24,14.02,122,13.78z M122.67,51.79c-0.24-0.24-0.36-0.57-0.36-0.97V21.96c0-0.4,0.12-0.73,0.36-0.97
		c0.24-0.24,0.57-0.36,0.97-0.36h1.03c0.4,0,0.73,0.12,0.97,0.36c0.24,0.24,0.36,0.57,0.36,0.97v28.86c0,0.4-0.12,0.73-0.36,0.97
		c-0.24,0.24-0.57,0.36-0.97,0.36h-1.03C123.23,52.16,122.91,52.04,122.67,51.79z"/>
	<path class="st0" d="M138.92,51.55c-1.66-0.81-2.98-1.9-3.97-3.27c-0.99-1.37-1.49-2.89-1.49-4.55c0-2.67,1.08-4.85,3.24-6.55
		c2.16-1.7,5.08-2.79,8.76-3.27l9.58-1.33v-2.12c0-2.22-0.68-3.93-2.03-5.12c-1.35-1.19-3.43-1.79-6.21-1.79
		c-2.06,0-3.75,0.4-5.06,1.21c-1.31,0.81-2.15,1.78-2.52,2.91c-0.16,0.49-0.35,0.82-0.58,1c-0.22,0.18-0.52,0.27-0.88,0.27h-0.85
		c-0.36,0-0.68-0.13-0.94-0.39c-0.26-0.26-0.39-0.58-0.39-0.94c0-0.89,0.4-1.93,1.21-3.12c0.81-1.19,2.06-2.23,3.76-3.12
		c1.7-0.89,3.78-1.33,6.25-1.33c4.32,0,7.4,1.03,9.22,3.09c1.82,2.06,2.73,4.57,2.73,7.52v20.19c0,0.4-0.12,0.73-0.36,0.97
		c-0.24,0.24-0.57,0.36-0.97,0.36h-1.03c-0.4,0-0.73-0.12-0.97-0.36c-0.24-0.24-0.36-0.57-0.36-0.97v-2.85
		c-0.89,1.33-2.19,2.47-3.91,3.4c-1.72,0.93-3.99,1.39-6.82,1.39C142.37,52.76,140.57,52.36,138.92,51.55z M152.19,46.34
		c1.9-1.94,2.85-4.73,2.85-8.37v-2.06L147.22,37c-3.31,0.45-5.82,1.21-7.52,2.3c-1.7,1.09-2.55,2.47-2.55,4.12
		c0,1.86,0.78,3.3,2.33,4.31c1.56,1.01,3.36,1.52,5.43,1.52C147.87,49.25,150.29,48.28,152.19,46.34z"/>
	<path class="st0" d="M171.69,51.43c-1.8-0.89-3.15-1.9-4.06-3.03c-0.91-1.13-1.36-2.04-1.36-2.73c0-0.36,0.14-0.66,0.42-0.88
		c0.28-0.22,0.59-0.33,0.91-0.33h0.91c0.28,0,0.52,0.05,0.7,0.15c0.18,0.1,0.39,0.31,0.64,0.64c0.89,1.25,1.97,2.23,3.24,2.94
		c1.27,0.71,3.02,1.06,5.24,1.06c2.51,0,4.53-0.47,6.06-1.42c1.54-0.95,2.3-2.31,2.3-4.09c0-1.09-0.31-1.98-0.94-2.67
		c-0.63-0.69-1.64-1.28-3.03-1.79c-1.39-0.5-3.47-1.08-6.22-1.73c-3.6-0.81-6.05-1.92-7.37-3.33c-1.31-1.41-1.97-3.21-1.97-5.4
		c0-1.5,0.41-2.91,1.24-4.24c0.83-1.33,2.06-2.43,3.7-3.27s3.61-1.27,5.91-1.27c2.43,0,4.48,0.41,6.15,1.24
		c1.68,0.83,2.93,1.79,3.76,2.88c0.83,1.09,1.24,1.98,1.24,2.67c0,0.36-0.13,0.66-0.39,0.88c-0.26,0.22-0.58,0.33-0.94,0.33h-0.91
		c-0.57,0-1.01-0.26-1.33-0.79c-0.81-1.21-1.73-2.13-2.76-2.76c-1.03-0.63-2.64-0.94-4.82-0.94c-2.34,0-4.12,0.49-5.34,1.46
		c-1.21,0.97-1.82,2.24-1.82,3.82c0,0.97,0.24,1.78,0.73,2.43c0.49,0.65,1.4,1.24,2.73,1.79c1.33,0.55,3.27,1.1,5.82,1.67
		c3.76,0.85,6.41,1.98,7.94,3.4c1.54,1.42,2.3,3.3,2.3,5.64c0,1.66-0.47,3.17-1.39,4.55c-0.93,1.37-2.3,2.47-4.12,3.27
		s-4,1.21-6.55,1.21C175.7,52.76,173.48,52.32,171.69,51.43z"/>
	<path class="st0" d="M197.85,13.78c-0.24-0.24-0.36-0.57-0.36-0.97v-2.3c0-0.4,0.12-0.74,0.36-1c0.24-0.26,0.57-0.39,0.97-0.39h2.3
		c0.4,0,0.74,0.13,1,0.39c0.26,0.26,0.39,0.6,0.39,1v2.3c0,0.4-0.13,0.73-0.39,0.97c-0.26,0.24-0.6,0.36-1,0.36h-2.3
		C198.41,14.14,198.09,14.02,197.85,13.78z M198.51,51.79c-0.24-0.24-0.36-0.57-0.36-0.97V21.96c0-0.4,0.12-0.73,0.36-0.97
		c0.24-0.24,0.57-0.36,0.97-0.36h1.03c0.4,0,0.73,0.12,0.97,0.36c0.24,0.24,0.36,0.57,0.36,0.97v28.86c0,0.4-0.12,0.73-0.36,0.97
		c-0.24,0.24-0.57,0.36-0.97,0.36h-1.03C199.08,52.16,198.76,52.04,198.51,51.79z"/>
	<path class="st0" d="M215.04,51.43c-1.8-0.89-3.15-1.9-4.06-3.03c-0.91-1.13-1.36-2.04-1.36-2.73c0-0.36,0.14-0.66,0.42-0.88
		c0.28-0.22,0.59-0.33,0.91-0.33h0.91c0.28,0,0.52,0.05,0.7,0.15c0.18,0.1,0.39,0.31,0.64,0.64c0.89,1.25,1.97,2.23,3.24,2.94
		c1.27,0.71,3.02,1.06,5.24,1.06c2.51,0,4.53-0.47,6.06-1.42c1.54-0.95,2.3-2.31,2.3-4.09c0-1.09-0.31-1.98-0.94-2.67
		c-0.63-0.69-1.64-1.28-3.03-1.79c-1.39-0.5-3.47-1.08-6.22-1.73c-3.6-0.81-6.05-1.92-7.37-3.33c-1.31-1.41-1.97-3.21-1.97-5.4
		c0-1.5,0.41-2.91,1.24-4.24c0.83-1.33,2.06-2.43,3.7-3.27c1.64-0.85,3.61-1.27,5.91-1.27c2.43,0,4.48,0.41,6.15,1.24
		c1.68,0.83,2.93,1.79,3.76,2.88c0.83,1.09,1.24,1.98,1.24,2.67c0,0.36-0.13,0.66-0.39,0.88c-0.26,0.22-0.58,0.33-0.94,0.33h-0.91
		c-0.57,0-1.01-0.26-1.33-0.79c-0.81-1.21-1.73-2.13-2.76-2.76c-1.03-0.63-2.64-0.94-4.82-0.94c-2.34,0-4.12,0.49-5.34,1.46
		c-1.21,0.97-1.82,2.24-1.82,3.82c0,0.97,0.24,1.78,0.73,2.43c0.49,0.65,1.4,1.24,2.73,1.79c1.33,0.55,3.27,1.1,5.82,1.67
		c3.76,0.85,6.41,1.98,7.94,3.4c1.54,1.42,2.3,3.3,2.3,5.64c0,1.66-0.47,3.17-1.39,4.55c-0.93,1.37-2.3,2.47-4.12,3.27
		s-4,1.21-6.55,1.21C219.05,52.76,216.84,52.32,215.04,51.43z"/>
</g>
<g>
	<path class="st1" d="M248.82,50.92c-3.1-1.31-5.46-3.03-7.06-5.17c-1.6-2.13-2.45-4.46-2.55-6.98c0-0.39,0.15-0.74,0.44-1.05
		c0.29-0.31,0.65-0.47,1.09-0.47h6.62c0.53,0,0.97,0.12,1.31,0.36c0.34,0.24,0.65,0.58,0.95,1.02c0.48,1.65,1.59,3.03,3.31,4.15
		c1.72,1.12,4.09,1.67,7.09,1.67c3.39,0,5.95-0.57,7.68-1.71c1.72-1.14,2.58-2.7,2.58-4.69c0-1.31-0.44-2.4-1.31-3.27
		c-0.87-0.87-2.2-1.64-3.97-2.29c-1.77-0.65-4.4-1.44-7.89-2.36c-5.72-1.36-9.92-3.15-12.59-5.38c-2.67-2.23-4-5.43-4-9.6
		c0-2.81,0.78-5.32,2.33-7.53c1.55-2.21,3.77-3.94,6.66-5.2c2.88-1.26,6.24-1.89,10.08-1.89c4.03,0,7.51,0.7,10.44,2.11
		c2.93,1.41,5.17,3.17,6.69,5.28c1.53,2.11,2.34,4.21,2.44,6.29c0,0.39-0.15,0.74-0.44,1.05c-0.29,0.32-0.66,0.47-1.09,0.47h-6.91
		c-1.07,0-1.8-0.44-2.18-1.31c-0.24-1.55-1.19-2.85-2.84-3.89c-1.65-1.04-3.69-1.56-6.11-1.56c-2.67,0-4.77,0.51-6.29,1.53
		c-1.53,1.02-2.29,2.5-2.29,4.44c0,1.31,0.39,2.4,1.16,3.27c0.77,0.87,1.99,1.64,3.64,2.29c1.65,0.65,4.05,1.39,7.2,2.22
		c4.32,0.97,7.75,2.06,10.3,3.27c2.55,1.21,4.43,2.74,5.64,4.58c1.21,1.84,1.82,4.2,1.82,7.06c0,3.15-0.86,5.88-2.58,8.19
		c-1.72,2.3-4.15,4.06-7.28,5.27c-3.13,1.21-6.75,1.82-10.88,1.82C255.66,52.89,251.92,52.23,248.82,50.92z"/>
	<path class="st1" d="M289.56,51.65c-0.34-0.34-0.51-0.75-0.51-1.24V3.05c0-0.53,0.16-0.97,0.47-1.31c0.31-0.34,0.74-0.51,1.27-0.51
		h19.5c5.87,0,10.48,1.38,13.82,4.15c3.35,2.76,5.02,6.79,5.02,12.08c0,5.24-1.67,9.2-5.02,11.9c-3.35,2.69-7.96,4.04-13.82,4.04
		h-10.7v17.03c0,0.53-0.17,0.96-0.51,1.27c-0.34,0.32-0.78,0.47-1.31,0.47h-6.98C290.31,52.16,289.9,51.99,289.56,51.65z
		 M309.93,25.24c2.81,0,4.96-0.67,6.44-2c1.48-1.33,2.22-3.29,2.22-5.86c0-2.52-0.72-4.49-2.15-5.89c-1.43-1.41-3.6-2.11-6.51-2.11
		h-10.48v15.86H309.93z"/>
	<path class="st1" d="M337.58,51.65c-0.34-0.34-0.51-0.75-0.51-1.24V3.05c0-0.53,0.16-0.97,0.47-1.31c0.31-0.34,0.74-0.51,1.27-0.51
		h32.09c0.53,0,0.97,0.17,1.31,0.51c0.34,0.34,0.51,0.78,0.51,1.31v4.87c0,0.53-0.17,0.96-0.51,1.27c-0.34,0.32-0.78,0.47-1.31,0.47
		h-23.86V22.4h22.26c0.53,0,0.97,0.17,1.31,0.51c0.34,0.34,0.51,0.78,0.51,1.31v4.58c0,0.53-0.17,0.96-0.51,1.27
		c-0.34,0.32-0.78,0.47-1.31,0.47h-22.26v13.17h24.45c0.53,0,0.97,0.16,1.31,0.47c0.34,0.32,0.51,0.74,0.51,1.27v4.95
		c0,0.53-0.17,0.96-0.51,1.27c-0.34,0.32-0.78,0.47-1.31,0.47h-32.67C338.33,52.16,337.92,51.99,337.58,51.65z"/>
	<path class="st1" d="M378.18,51.72c-0.29-0.29-0.44-0.65-0.44-1.09l0.15-0.65l17.46-46.93c0.48-1.21,1.36-1.82,2.62-1.82h8
		c1.26,0,2.13,0.61,2.62,1.82l17.46,46.93l0.15,0.65c0,0.44-0.16,0.8-0.47,1.09c-0.32,0.29-0.67,0.44-1.05,0.44h-6.48
		c-1.02,0-1.72-0.46-2.11-1.38l-3.35-8.8H391.2l-3.35,8.8c-0.39,0.92-1.09,1.38-2.11,1.38h-6.48
		C378.83,52.16,378.47,52.01,378.18,51.72z M393.75,33.53h16.44l-8.22-22.41L393.75,33.53z"/>
	<path class="st1" d="M433.4,51.65c-0.34-0.34-0.51-0.75-0.51-1.24V3.05c0-0.53,0.16-0.97,0.47-1.31c0.31-0.34,0.74-0.51,1.27-0.51
		h6.55c0.53,0,0.97,0.17,1.31,0.51c0.34,0.34,0.51,0.78,0.51,1.31v17.03l16.22-17.53c0.73-0.87,1.67-1.31,2.84-1.31h7.42
		c0.39,0,0.74,0.15,1.05,0.44c0.31,0.29,0.47,0.65,0.47,1.09c0,0.34-0.12,0.63-0.36,0.87L450.86,25.6l21.24,24.08
		c0.19,0.34,0.29,0.66,0.29,0.95c0,0.44-0.15,0.8-0.44,1.09c-0.29,0.29-0.63,0.44-1.02,0.44h-7.64c-1.02,0-1.75-0.21-2.18-0.62
		c-0.44-0.41-0.68-0.64-0.73-0.69L443,31.64v18.77c0,0.49-0.17,0.9-0.51,1.24c-0.34,0.34-0.78,0.51-1.31,0.51h-6.55
		C434.15,52.16,433.74,51.99,433.4,51.65z"/>
	<path class="st1" d="M485.49,50.92c-3.1-1.31-5.46-3.03-7.06-5.17c-1.6-2.13-2.45-4.46-2.55-6.98c0-0.39,0.15-0.74,0.44-1.05
		c0.29-0.31,0.65-0.47,1.09-0.47h6.62c0.53,0,0.97,0.12,1.31,0.36c0.34,0.24,0.65,0.58,0.95,1.02c0.48,1.65,1.59,3.03,3.31,4.15
		c1.72,1.12,4.09,1.67,7.09,1.67c3.39,0,5.95-0.57,7.68-1.71c1.72-1.14,2.58-2.7,2.58-4.69c0-1.31-0.44-2.4-1.31-3.27
		c-0.87-0.87-2.2-1.64-3.97-2.29c-1.77-0.65-4.4-1.44-7.89-2.36c-5.72-1.36-9.92-3.15-12.59-5.38c-2.67-2.23-4-5.43-4-9.6
		c0-2.81,0.78-5.32,2.33-7.53c1.55-2.21,3.77-3.94,6.66-5.2c2.88-1.26,6.24-1.89,10.08-1.89c4.03,0,7.51,0.7,10.44,2.11
		c2.93,1.41,5.17,3.17,6.69,5.28c1.53,2.11,2.34,4.21,2.44,6.29c0,0.39-0.15,0.74-0.44,1.05c-0.29,0.32-0.66,0.47-1.09,0.47h-6.91
		c-1.07,0-1.8-0.44-2.18-1.31c-0.24-1.55-1.19-2.85-2.84-3.89c-1.65-1.04-3.69-1.56-6.11-1.56c-2.67,0-4.77,0.51-6.29,1.53
		c-1.53,1.02-2.29,2.5-2.29,4.44c0,1.31,0.39,2.4,1.16,3.27c0.77,0.87,1.99,1.64,3.64,2.29c1.65,0.65,4.05,1.39,7.2,2.22
		c4.32,0.97,7.75,2.06,10.3,3.27c2.55,1.21,4.43,2.74,5.64,4.58c1.21,1.84,1.82,4.2,1.82,7.06c0,3.15-0.86,5.88-2.58,8.19
		c-1.72,2.3-4.15,4.06-7.28,5.27c-3.13,1.21-6.75,1.82-10.88,1.82C492.33,52.89,488.6,52.23,485.49,50.92z"/>
</g>
<g>
	<path class="st2" d="M6.57,106.14c-1.47-0.63-2.58-1.46-3.35-2.49c-0.76-1.03-1.17-2.14-1.22-3.33c0-0.19,0.07-0.36,0.22-0.51
		c0.15-0.15,0.33-0.22,0.55-0.22h1.78c0.44,0,0.74,0.24,0.91,0.73c0.22,1.02,0.84,1.9,1.87,2.64c1.03,0.74,2.5,1.11,4.42,1.11
		c2.06,0,3.6-0.36,4.62-1.09c1.02-0.73,1.53-1.73,1.53-3.02c0-0.82-0.25-1.5-0.75-2.04c-0.5-0.53-1.24-1-2.22-1.4
		c-0.98-0.4-2.46-0.89-4.42-1.47c-1.87-0.53-3.35-1.1-4.46-1.71c-1.1-0.61-1.93-1.35-2.49-2.24c-0.56-0.89-0.84-2.01-0.84-3.37
		c0-1.31,0.35-2.48,1.05-3.51c0.7-1.03,1.72-1.84,3.06-2.44c1.33-0.59,2.91-0.89,4.73-0.89c1.89,0,3.51,0.33,4.86,1
		c1.35,0.67,2.37,1.5,3.07,2.51c0.7,1.01,1.08,2.02,1.13,3.04c0,0.22-0.07,0.4-0.22,0.55c-0.15,0.15-0.33,0.22-0.55,0.22h-1.82
		c-0.19,0-0.38-0.06-0.55-0.18c-0.17-0.12-0.29-0.3-0.36-0.55c-0.15-1.04-0.73-1.9-1.75-2.58c-1.02-0.68-2.29-1.02-3.82-1.02
		c-1.65,0-2.96,0.32-3.93,0.96c-0.97,0.64-1.46,1.6-1.46,2.86c0,0.85,0.22,1.54,0.67,2.07c0.45,0.53,1.14,1.01,2.07,1.42
		s2.3,0.89,4.09,1.42c2.06,0.58,3.68,1.16,4.86,1.75c1.18,0.58,2.06,1.3,2.64,2.17c0.58,0.86,0.87,1.97,0.87,3.33
		c0,2.28-0.87,4.06-2.6,5.33c-1.73,1.27-4.08,1.91-7.04,1.91C9.76,107.09,8.03,106.77,6.57,106.14z"/>
	<path class="st2" d="M25.99,113.42c-0.16-0.15-0.24-0.35-0.24-0.62V88.65c0-0.27,0.08-0.47,0.24-0.62c0.16-0.15,0.36-0.22,0.6-0.22
		h1.53c0.27,0,0.47,0.07,0.62,0.22c0.15,0.15,0.22,0.35,0.22,0.62v1.6c1.41-1.87,3.41-2.8,6-2.8c2.55,0,4.46,0.81,5.73,2.42
		c1.27,1.61,1.95,3.67,2.02,6.17c0.02,0.27,0.04,0.68,0.04,1.24c0,0.56-0.01,0.97-0.04,1.24c-0.07,2.47-0.75,4.52-2.02,6.15
		c-1.27,1.63-3.18,2.44-5.73,2.44c-2.6,0-4.56-0.92-5.89-2.77v8.48c0,0.24-0.08,0.44-0.24,0.6c-0.16,0.16-0.36,0.24-0.6,0.24h-1.64
		C26.35,113.64,26.15,113.56,25.99,113.42z M38.09,102.61c0.8-1.09,1.24-2.52,1.31-4.29c0.02-0.24,0.04-0.59,0.04-1.05
		c0-4.66-1.72-6.98-5.17-6.98c-1.7,0-2.98,0.56-3.84,1.69c-0.86,1.13-1.32,2.46-1.36,3.98c-0.02,0.27-0.04,0.74-0.04,1.42
		c0,0.68,0.01,1.15,0.04,1.42c0.05,1.48,0.51,2.76,1.4,3.84c0.89,1.08,2.15,1.62,3.8,1.62C36.01,104.25,37.29,103.71,38.09,102.61z"
		/>
	<path class="st2" d="M48.84,104.83c-1.44-1.5-2.21-3.5-2.31-6l-0.04-1.57l0.04-1.56c0.1-2.5,0.88-4.5,2.35-6
		c1.47-1.5,3.51-2.26,6.13-2.26c2.62,0,4.66,0.75,6.13,2.26c1.47,1.5,2.25,3.5,2.35,6c0.05,0.53,0.07,1.05,0.07,1.56
		s-0.02,1.03-0.07,1.57c-0.1,2.5-0.87,4.5-2.31,6c-1.44,1.5-3.5,2.26-6.17,2.26S50.28,106.34,48.84,104.83z M58.7,102.89
		c0.91-0.98,1.4-2.4,1.47-4.24c0.02-0.24,0.04-0.7,0.04-1.38c0-0.68-0.01-1.14-0.04-1.38c-0.07-1.84-0.56-3.26-1.47-4.24
		c-0.91-0.98-2.14-1.47-3.69-1.47c-1.55,0-2.78,0.49-3.69,1.47c-0.91,0.98-1.4,2.4-1.47,4.24l-0.04,1.38l0.04,1.38
		c0.07,1.84,0.56,3.26,1.47,4.24c0.91,0.98,2.14,1.47,3.69,1.47C56.56,104.36,57.79,103.87,58.7,102.89z"/>
	<path class="st2" d="M68.37,106.49c-0.16-0.16-0.24-0.36-0.24-0.6V88.65c0-0.24,0.08-0.44,0.24-0.6c0.16-0.16,0.36-0.24,0.6-0.24
		h1.56c0.27,0,0.47,0.07,0.62,0.22c0.15,0.15,0.22,0.35,0.22,0.62v1.6c0.73-0.9,1.57-1.59,2.53-2.07c0.96-0.48,2.15-0.73,3.58-0.73
		c2.33,0,4.13,0.75,5.42,2.24c1.29,1.49,1.93,3.46,1.93,5.91v10.29c0,0.24-0.08,0.44-0.24,0.6c-0.16,0.16-0.36,0.24-0.6,0.24h-1.67
		c-0.24,0-0.44-0.08-0.6-0.24c-0.16-0.16-0.24-0.36-0.24-0.6V95.81c0-1.75-0.42-3.1-1.27-4.07c-0.85-0.97-2.06-1.46-3.64-1.46
		c-1.55,0-2.79,0.49-3.71,1.47c-0.92,0.98-1.38,2.33-1.38,4.06v10.08c0,0.24-0.08,0.44-0.24,0.6c-0.16,0.16-0.36,0.24-0.6,0.24
		h-1.67C68.73,106.73,68.53,106.65,68.37,106.49z"/>
	<path class="st2" d="M92.35,106.27c-1.15-0.55-2.01-1.17-2.56-1.87c-0.56-0.7-0.84-1.29-0.84-1.75c0-0.24,0.08-0.43,0.25-0.56
		c0.17-0.13,0.35-0.2,0.55-0.2h1.53c0.15,0,0.26,0.02,0.35,0.07s0.2,0.16,0.35,0.33c0.56,0.68,1.18,1.21,1.87,1.6
		c0.69,0.39,1.62,0.58,2.78,0.58c1.31,0,2.36-0.24,3.15-0.73c0.79-0.48,1.18-1.19,1.18-2.11c0-0.61-0.17-1.09-0.51-1.46
		c-0.34-0.36-0.9-0.69-1.69-0.98c-0.79-0.29-1.96-0.61-3.51-0.95c-2.11-0.46-3.6-1.13-4.47-2c-0.87-0.87-1.31-2-1.31-3.38
		c0-0.9,0.27-1.76,0.8-2.6c0.53-0.84,1.33-1.52,2.38-2.04c1.05-0.52,2.31-0.78,3.77-0.78c1.53,0,2.83,0.25,3.91,0.76
		c1.08,0.51,1.89,1.1,2.44,1.78c0.55,0.68,0.82,1.25,0.82,1.71c0,0.22-0.08,0.4-0.24,0.55c-0.16,0.15-0.35,0.22-0.56,0.22h-1.38
		c-0.34,0-0.58-0.13-0.73-0.4c-0.41-0.46-0.76-0.82-1.04-1.07c-0.28-0.25-0.69-0.47-1.22-0.65c-0.53-0.18-1.2-0.27-2-0.27
		c-1.19,0-2.1,0.25-2.73,0.75c-0.63,0.5-0.95,1.16-0.95,1.98c0,0.51,0.13,0.94,0.4,1.29c0.27,0.35,0.78,0.68,1.53,0.98
		c0.75,0.3,1.87,0.61,3.35,0.93c2.3,0.49,3.93,1.18,4.89,2.07c0.96,0.9,1.44,2.05,1.44,3.46c0,1.04-0.3,1.99-0.89,2.84
		c-0.59,0.85-1.48,1.52-2.66,2c-1.18,0.49-2.58,0.73-4.2,0.73C94.91,107.09,93.5,106.82,92.35,106.27z"/>
	<path class="st2" d="M110.1,104.83c-1.44-1.5-2.21-3.5-2.31-6l-0.04-1.57l0.04-1.56c0.1-2.5,0.88-4.5,2.35-6
		c1.47-1.5,3.51-2.26,6.13-2.26c2.62,0,4.66,0.75,6.13,2.26c1.47,1.5,2.25,3.5,2.35,6c0.05,0.53,0.07,1.05,0.07,1.56
		s-0.02,1.03-0.07,1.57c-0.1,2.5-0.87,4.5-2.31,6c-1.44,1.5-3.5,2.26-6.17,2.26S111.54,106.34,110.1,104.83z M119.96,102.89
		c0.91-0.98,1.4-2.4,1.47-4.24c0.02-0.24,0.04-0.7,0.04-1.38c0-0.68-0.01-1.14-0.04-1.38c-0.07-1.84-0.56-3.26-1.47-4.24
		c-0.91-0.98-2.14-1.47-3.69-1.47c-1.55,0-2.78,0.49-3.69,1.47s-1.4,2.4-1.47,4.24l-0.04,1.38l0.04,1.38
		c0.07,1.84,0.56,3.26,1.47,4.24s2.14,1.47,3.69,1.47C117.82,104.36,119.05,103.87,119.96,102.89z"/>
	<path class="st2" d="M129.63,106.49c-0.16-0.16-0.24-0.36-0.24-0.6V88.68c0-0.24,0.08-0.45,0.24-0.62c0.16-0.17,0.36-0.25,0.6-0.25
		h1.53c0.27,0,0.48,0.08,0.64,0.24c0.16,0.16,0.24,0.37,0.24,0.64v1.6c0.99-1.65,2.68-2.47,5.06-2.47h1.42
		c0.27,0,0.47,0.07,0.62,0.22c0.15,0.15,0.22,0.35,0.22,0.62v1.35c0,0.24-0.07,0.44-0.22,0.6s-0.35,0.24-0.62,0.24h-2.07
		c-1.33,0-2.38,0.39-3.15,1.16c-0.76,0.78-1.15,1.83-1.15,3.16v10.73c0,0.24-0.09,0.44-0.26,0.6c-0.17,0.16-0.38,0.24-0.62,0.24
		h-1.64C129.99,106.73,129.79,106.65,129.63,106.49z"/>
	<path class="st2" d="M144.64,104.78c-1.48-1.54-2.29-3.64-2.44-6.31l-0.04-1.24l0.04-1.2c0.15-2.62,0.96-4.71,2.44-6.26
		c1.48-1.55,3.46-2.33,5.93-2.33c2.67,0,4.73,0.85,6.2,2.55c1.47,1.7,2.2,4,2.2,6.91v0.65c0,0.24-0.08,0.44-0.24,0.6
		c-0.16,0.16-0.36,0.24-0.6,0.24h-12.62v0.33c0.07,1.58,0.56,2.92,1.46,4.04c0.9,1.12,2.09,1.67,3.57,1.67
		c1.14,0,2.07-0.22,2.78-0.67c0.71-0.45,1.26-0.92,1.62-1.4c0.22-0.29,0.39-0.47,0.51-0.53c0.12-0.06,0.33-0.09,0.62-0.09h1.6
		c0.22,0,0.41,0.06,0.56,0.18c0.16,0.12,0.24,0.28,0.24,0.47c0,0.53-0.33,1.18-0.98,1.93c-0.65,0.75-1.58,1.4-2.78,1.95
		c-1.2,0.55-2.58,0.82-4.13,0.82C148.1,107.09,146.12,106.32,144.64,104.78z M155.66,95.92v-0.11c0-1.7-0.46-3.08-1.38-4.15
		c-0.92-1.07-2.16-1.6-3.71-1.6c-1.58,0-2.81,0.53-3.71,1.6c-0.9,1.07-1.35,2.45-1.35,4.15v0.11H155.66z"/>
	<path class="st2" d="M164.59,104.62c-1.27-1.65-1.96-3.73-2.06-6.26l-0.04-1.09l0.04-1.09c0.1-2.5,0.79-4.58,2.07-6.24
		c1.29-1.66,3.19-2.49,5.71-2.49s4.49,0.9,5.89,2.69v-8.4c0-0.24,0.08-0.44,0.24-0.6c0.16-0.16,0.36-0.24,0.6-0.24h1.64
		c0.24,0,0.44,0.08,0.6,0.24c0.16,0.16,0.24,0.36,0.24,0.6v24.16c0,0.24-0.08,0.44-0.24,0.6c-0.16,0.16-0.36,0.24-0.6,0.24h-1.57
		c-0.24,0-0.44-0.08-0.58-0.24c-0.15-0.16-0.22-0.36-0.22-0.6v-1.56c-1.38,1.84-3.38,2.77-6,2.77
		C167.78,107.09,165.87,106.27,164.59,104.62z M174.83,102.56c0.85-1.13,1.31-2.47,1.38-4.02c0.02-0.27,0.04-0.73,0.04-1.38
		c0-0.68-0.01-1.15-0.04-1.42c-0.05-1.48-0.52-2.76-1.4-3.84c-0.89-1.08-2.15-1.62-3.8-1.62c-1.74,0-3.02,0.55-3.82,1.64
		c-0.8,1.09-1.24,2.52-1.31,4.29l-0.04,1.05c0,4.66,1.72,6.98,5.17,6.98C172.71,104.25,173.99,103.69,174.83,102.56z"/>
	<path class="st2" d="M197.21,104.33v1.56c0,0.24-0.08,0.44-0.24,0.6c-0.16,0.16-0.36,0.24-0.6,0.24h-1.53
		c-0.24,0-0.44-0.08-0.6-0.24c-0.16-0.16-0.24-0.36-0.24-0.6V81.73c0-0.27,0.08-0.47,0.24-0.62c0.16-0.15,0.36-0.22,0.6-0.22h1.64
		c0.24,0,0.44,0.08,0.6,0.24c0.16,0.16,0.24,0.36,0.24,0.6v8.4c1.36-1.79,3.32-2.69,5.89-2.69c2.55,0,4.46,0.83,5.73,2.49
		c1.27,1.66,1.95,3.74,2.02,6.24c0.02,0.27,0.04,0.63,0.04,1.09c0,0.46-0.01,0.82-0.04,1.09c-0.07,2.5-0.75,4.58-2.02,6.24
		c-1.27,1.66-3.18,2.49-5.73,2.49C200.59,107.09,198.59,106.17,197.21,104.33z M206.34,102.61c0.8-1.09,1.24-2.52,1.31-4.29
		c0.02-0.24,0.04-0.59,0.04-1.05c0-4.66-1.72-6.98-5.17-6.98c-1.65,0-2.92,0.54-3.8,1.62c-0.89,1.08-1.35,2.36-1.4,3.84
		c-0.02,0.27-0.04,0.74-0.04,1.42c0,0.65,0.01,1.12,0.04,1.38c0.05,1.55,0.5,2.89,1.36,4.02c0.86,1.13,2.14,1.69,3.84,1.69
		C204.26,104.25,205.54,103.71,206.34,102.61z"/>
	<path class="st2" d="M218.34,113.42c-0.15-0.15-0.22-0.32-0.22-0.51c0-0.07,0.06-0.29,0.18-0.66l2.84-6.66l-6.95-16.41
		c-0.15-0.29-0.22-0.5-0.22-0.62c0.02-0.22,0.11-0.4,0.25-0.55c0.15-0.15,0.31-0.22,0.51-0.22h1.67c0.39,0,0.68,0.19,0.87,0.58
		l5.6,13.39l5.75-13.39c0.19-0.39,0.48-0.58,0.87-0.58h1.64c0.19,0,0.36,0.07,0.51,0.22c0.15,0.15,0.22,0.32,0.22,0.51
		c0,0.17-0.06,0.39-0.18,0.66l-10.3,23.86c-0.12,0.19-0.25,0.34-0.38,0.44c-0.13,0.1-0.31,0.15-0.53,0.15h-1.6
		C218.67,113.64,218.49,113.56,218.34,113.42z"/>
	<path class="st2" d="M242.71,106.51c-0.15-0.15-0.22-0.31-0.22-0.51l0.07-0.4l9.02-23.54c0.19-0.53,0.58-0.8,1.16-0.8h2.33
		c0.58,0,0.97,0.27,1.16,0.8l9.02,23.54l0.07,0.4c0,0.19-0.08,0.36-0.24,0.51c-0.16,0.15-0.33,0.22-0.53,0.22h-1.71
		c-0.24,0-0.44-0.07-0.6-0.2c-0.16-0.13-0.26-0.27-0.31-0.42l-2.04-5.24h-12.04l-2,5.24c-0.19,0.41-0.5,0.62-0.91,0.62h-1.75
		C243.03,106.73,242.86,106.65,242.71,106.51z M248.94,97.85h9.97l-4.98-13.06L248.94,97.85z"/>
	<path class="st2" d="M272.04,104.33v1.56c0,0.24-0.08,0.44-0.24,0.6c-0.16,0.16-0.36,0.24-0.6,0.24h-1.53
		c-0.24,0-0.44-0.08-0.6-0.24c-0.16-0.16-0.24-0.36-0.24-0.6V81.73c0-0.27,0.08-0.47,0.24-0.62c0.16-0.15,0.36-0.22,0.6-0.22h1.64
		c0.24,0,0.44,0.08,0.6,0.24c0.16,0.16,0.24,0.36,0.24,0.6v8.4c1.36-1.79,3.32-2.69,5.89-2.69c2.55,0,4.46,0.83,5.73,2.49
		c1.27,1.66,1.95,3.74,2.02,6.24c0.02,0.27,0.04,0.63,0.04,1.09c0,0.46-0.01,0.82-0.04,1.09c-0.07,2.5-0.75,4.58-2.02,6.24
		c-1.27,1.66-3.18,2.49-5.73,2.49C275.42,107.09,273.42,106.17,272.04,104.33z M281.17,102.61c0.8-1.09,1.24-2.52,1.31-4.29
		c0.02-0.24,0.04-0.59,0.04-1.05c0-4.66-1.72-6.98-5.17-6.98c-1.65,0-2.92,0.54-3.8,1.62c-0.89,1.08-1.35,2.36-1.4,3.84
		c-0.02,0.27-0.04,0.74-0.04,1.42c0,0.65,0.01,1.12,0.04,1.38c0.05,1.55,0.5,2.89,1.36,4.02c0.86,1.13,2.14,1.69,3.84,1.69
		C279.09,104.25,280.37,103.71,281.17,102.61z"/>
	<path class="st2" d="M293.65,104.33v1.56c0,0.24-0.08,0.44-0.24,0.6c-0.16,0.16-0.36,0.24-0.6,0.24h-1.53
		c-0.24,0-0.44-0.08-0.6-0.24c-0.16-0.16-0.24-0.36-0.24-0.6V81.73c0-0.27,0.08-0.47,0.24-0.62c0.16-0.15,0.36-0.22,0.6-0.22h1.64
		c0.24,0,0.44,0.08,0.6,0.24c0.16,0.16,0.24,0.36,0.24,0.6v8.4c1.36-1.79,3.32-2.69,5.89-2.69c2.55,0,4.46,0.83,5.73,2.49
		c1.27,1.66,1.95,3.74,2.02,6.24c0.02,0.27,0.04,0.63,0.04,1.09c0,0.46-0.01,0.82-0.04,1.09c-0.07,2.5-0.75,4.58-2.02,6.24
		c-1.27,1.66-3.18,2.49-5.73,2.49C297.03,107.09,295.03,106.17,293.65,104.33z M302.78,102.61c0.8-1.09,1.24-2.52,1.31-4.29
		c0.02-0.24,0.04-0.59,0.04-1.05c0-4.66-1.72-6.98-5.17-6.98c-1.65,0-2.92,0.54-3.8,1.62c-0.89,1.08-1.35,2.36-1.4,3.84
		c-0.02,0.27-0.04,0.74-0.04,1.42c0,0.65,0.01,1.12,0.04,1.38c0.05,1.55,0.5,2.89,1.36,4.02c0.86,1.13,2.14,1.69,3.84,1.69
		C300.7,104.25,301.98,103.71,302.78,102.61z"/>
	<path class="st2" d="M318.75,105.78l-8.19-23.39l-0.07-0.4c0-0.19,0.08-0.36,0.24-0.51c0.16-0.15,0.33-0.22,0.53-0.22H313
		c0.27,0,0.48,0.07,0.64,0.2s0.26,0.29,0.31,0.45l7.2,20.81l7.24-20.81c0.05-0.17,0.15-0.32,0.31-0.45c0.16-0.13,0.37-0.2,0.64-0.2
		h1.75c0.19,0,0.36,0.07,0.51,0.22c0.15,0.15,0.22,0.32,0.22,0.51c0,0.17-0.01,0.3-0.04,0.4l-8.18,23.39
		c-0.24,0.63-0.68,0.95-1.31,0.95h-2.22C319.42,106.73,318.99,106.41,318.75,105.78z"/>
	<path class="st2" d="M335.72,84.01c-0.16-0.16-0.24-0.36-0.24-0.6v-1.89c0-0.24,0.08-0.45,0.24-0.62c0.16-0.17,0.36-0.25,0.6-0.25
		h2.15c0.24,0,0.45,0.08,0.62,0.25c0.17,0.17,0.25,0.38,0.25,0.62v1.89c0,0.24-0.08,0.44-0.25,0.6c-0.17,0.16-0.38,0.24-0.62,0.24
		h-2.15C336.07,84.24,335.87,84.17,335.72,84.01z M336.01,106.49c-0.16-0.16-0.24-0.36-0.24-0.6V88.65c0-0.24,0.08-0.44,0.24-0.6
		c0.16-0.16,0.36-0.24,0.6-0.24h1.6c0.24,0,0.44,0.08,0.6,0.24c0.16,0.16,0.24,0.36,0.24,0.6v17.24c0,0.24-0.08,0.44-0.24,0.6
		c-0.16,0.16-0.36,0.24-0.6,0.24h-1.6C336.37,106.73,336.16,106.65,336.01,106.49z"/>
	<path class="st2" d="M346.07,104.78c-1.48-1.54-2.29-3.64-2.44-6.31l-0.04-1.24l0.04-1.2c0.15-2.62,0.96-4.71,2.44-6.26
		c1.48-1.55,3.46-2.33,5.93-2.33c2.67,0,4.73,0.85,6.2,2.55c1.47,1.7,2.2,4,2.2,6.91v0.65c0,0.24-0.08,0.44-0.24,0.6
		c-0.16,0.16-0.36,0.24-0.6,0.24h-12.62v0.33c0.07,1.58,0.56,2.92,1.45,4.04c0.9,1.12,2.09,1.67,3.57,1.67
		c1.14,0,2.07-0.22,2.78-0.67s1.26-0.92,1.62-1.4c0.22-0.29,0.39-0.47,0.51-0.53c0.12-0.06,0.33-0.09,0.62-0.09h1.6
		c0.22,0,0.41,0.06,0.56,0.18c0.16,0.12,0.24,0.28,0.24,0.47c0,0.53-0.33,1.18-0.98,1.93c-0.66,0.75-1.58,1.4-2.78,1.95
		c-1.2,0.55-2.58,0.82-4.13,0.82C349.52,107.09,347.55,106.32,346.07,104.78z M357.09,95.92v-0.11c0-1.7-0.46-3.08-1.38-4.15
		c-0.92-1.07-2.16-1.6-3.71-1.6c-1.58,0-2.81,0.53-3.71,1.6c-0.9,1.07-1.35,2.45-1.35,4.15v0.11H357.09z"/>
</g>
</svg>
